<svg version="1.0" width="56px" height="57px" viewBox="0 0 56 57" xmlns="http://www.w3.org/2000/svg">
    <defs>
        <style type="text/css"><![CDATA[
      .custom-primary-color {
        fill:var(--custom-primary-color, #c2009e);
      }
      .custom-secondary-color {
        fill:var(--custom-secondary-color, #d5a3cd);
      }
    ]]></style>
    </defs>

    <g fill="#000000">
        <path d="M11.5 43.6 l-6 -2.3 -2.3 -6.7 c-1.2 -3.6 -2.4 -9 -2.5 -11.9 l-0.2 -5.2 7.8 -4.1 c5.8 -3 8.2 -4.9 9.5 -7.4 1.2 -2.4 2.9 -3.8 6 -4.9 3.8 -1.4 4.6 -1.4 8.5 0 3 1.1 4.7 2.5 5.9 4.9 1.3 2.5 3.7 4.4 9.5 7.4 l7.8 4.1 -0.2 5.2 c-0.1 2.9 -1.3 8.2 -2.5 11.9 l-2.3 6.7 -6.5 2.4 c-3.6 1.2 -6.8 2.3 -7.2 2.3 -0.5 0 -1.4 -1.5 -2.2 -3.2 -0.8 -1.8 -1.5 -2.6 -1.5 -1.7 -0.1 1.1 -1.3 1.5 -5.1 1.5 -3.8 0 -5 -0.4 -5.1 -1.5 0 -0.9 -0.7 -0.1 -1.5 1.7 -1.6 3.7 -1.9 3.7 -9.9 0.8z m3.5 -19.6 c0 -2.9 0.5 -4.3 2 -5.2 1.1 -0.7 2 -2.1 2 -3 0 -2.2 -0.3 -2.2 -4.1 -0.2 -2 1 -2.9 2 -2.5 3 0.3 0.9 0.6 3.3 0.6 5.5 0 2.1 0.5 3.9 1 3.9 0.6 0 1 -1.8 1 -4z m28 0.1 c0 -2.2 0.3 -4.6 0.6 -5.5 0.4 -1 -0.5 -2 -2.5 -3 -3.8 -2 -4.1 -2 -4.1 0.2 0 0.9 0.9 2.3 2 3 1.5 0.9 2 2.3 2 5.2 0 2.2 0.5 4 1 4 0.6 0 1 -1.8 1 -3.9z m-12.6 -17.6 c-0.4 -0.8 -1.4 -1.5 -2.4 -1.5 -1 0 -2 0.7 -2.4 1.5 -0.4 1.1 0.2 1.5 2.4 1.5 2.2 0 2.8 -0.4 2.4 -1.5z"/>
    </g>
    <g fill="#313131">
        <path d="M15.3 43.8 c-1.3 -0.6 -2.3 -1.4 -2.3 -1.8 0 -0.7 8.1 -4.2 8.7 -3.7 0.6 0.7 -2.2 6.7 -3.2 6.6 -0.5 0 -2 -0.5 -3.2 -1.1z"/>
        <path d="M34.7 41.8 c-0.2 -1.8 -0.4 -3.4 -0.3 -3.5 0.4 -0.5 8.6 3 8.6 3.6 0 0.8 -5 3.1 -6.6 3.1 -0.6 0 -1.4 -1.5 -1.7 -3.2z"/>
        <path d="M8.8 41.7 c-2.2 -0.8 -2.9 -2 -3.8 -6.1 -1 -4.5 -0.9 -5.2 0.7 -6.4 1.7 -1.3 1.6 -1.4 -0.4 -0.7 -1.4 0.4 -2.3 0.2 -2.3 -0.4 0 -1.4 3.3 -1.4 4.6 -0.1 0.7 0.7 2.3 0.6 5 -0.4 l3.9 -1.5 -3.1 0 c-2.9 -0.1 -3.2 -0.4 -4.3 -5.7 -0.7 -3 -1.1 -5.7 -0.9 -5.9 0.1 -0.1 2.7 -1.4 5.5 -2.9 5 -2.5 5.4 -2.5 7.3 -0.9 1.6 1.4 1.8 2.5 1.3 5.8 -0.3 2.2 -1.4 4.6 -2.5 5.3 -1.2 0.9 -1.8 2.6 -1.8 5.2 0 3.5 -0.3 3.9 -3.6 5 l-3.6 1.2 0.7 4.9 c0.4 2.7 0.5 4.9 0.3 4.8 -0.1 -0.1 -1.5 -0.6 -3 -1.2z"/>
        <path d="M23 41.2 c0 -2 0.5 -2.2 5 -2.2 4.5 0 5 0.2 5 2.2 0 1.7 -0.3 1.9 -1.2 1 -0.7 -0.7 -2.4 -1.2 -3.8 -1.2 -1.4 0 -3.1 0.5 -3.8 1.2 -0.9 0.9 -1.2 0.7 -1.2 -1z"/>
        <path d="M44.5 38 l0.7 -4.8 -3.6 -1.2 c-3.3 -1.1 -3.6 -1.5 -3.6 -5 0 -2.6 -0.6 -4.3 -1.8 -5.2 -1.1 -0.7 -2.2 -3.1 -2.5 -5.4 -0.5 -3.3 -0.3 -4.4 1.2 -5.8 1.8 -1.6 2.2 -1.6 7.3 1 2.9 1.4 5.5 2.8 5.6 2.9 0.2 0.2 -0.2 2.9 -0.9 5.9 -1.1 5.3 -1.4 5.6 -4.3 5.7 l-3.1 0 3.9 1.5 c2.7 1 4.3 1.1 5 0.4 1.3 -1.3 4.6 -1.3 4.6 0.1 0 0.6 -0.9 0.8 -2.2 0.4 -2.1 -0.7 -2.2 -0.6 -0.5 0.7 1.6 1.2 1.7 1.9 0.7 6.4 -0.9 4.2 -1.5 5.2 -4.1 6.1 l-3.1 1.2 0.7 -4.9z"/>
        <path d="M12.6 38.2 c-0.4 -1.1 -0.4 -2.6 -0.1 -3.5 0.8 -1.9 5.8 -3.3 6.3 -1.8 0.2 0.6 1 1.1 1.8 1.1 3.6 0 -0.2 3.9 -5.3 5.4 -1.6 0.5 -2.3 0.2 -2.7 -1.2z"/>
        <path d="M38.1 38.2 c-3.7 -1.8 -5.2 -4.2 -2.8 -4.2 0.9 0 1.7 -0.5 1.9 -1.1 0.5 -1.6 5.6 0 6.3 2.1 0.6 1.8 -0.3 5 -1.4 5 -0.3 0 -2.1 -0.8 -4 -1.8z"/>
        <path d="M23 36.1 c0 -1 0.7 -2.4 1.5 -3.1 0.9 -0.7 1.5 -2.9 1.5 -5.5 0 -2.6 -0.6 -4.8 -1.5 -5.5 -3.1 -2.6 -0.6 -10 3.3 -10 4.1 0 6.9 7.4 3.7 10 -0.9 0.7 -1.5 2.9 -1.5 5.5 0 2.6 0.6 4.8 1.5 5.5 0.8 0.7 1.5 2.1 1.5 3.1 0 1.6 -0.8 1.9 -5 1.9 -4.2 0 -5 -0.3 -5 -1.9z"/>
        <path d="M19.4 31.7 c-0.3 -0.8 -0.4 -3.2 -0.2 -5.3 0.3 -3.4 0.6 -3.9 2.8 -3.9 2.3 0 2.5 0.3 2.5 5 0 4.4 -0.3 5 -2.3 5.3 -1.3 0.2 -2.4 -0.3 -2.8 -1.1z"/>
        <path d="M31.5 30.7 c-0.4 -1.4 -0.5 -3.8 -0.3 -5.3 0.2 -2.3 0.8 -2.9 2.8 -2.9 2.3 0 2.5 0.3 2.5 5 0 4.4 -0.3 5 -2.2 5.3 -1.7 0.2 -2.4 -0.3 -2.8 -2.1z"/>
        <path d="M6.3 21.3 c-1.5 -6.5 -0.2 -8 1.4 -1.8 1.5 6 1.6 6.5 0.5 6.5 -0.5 0 -1.4 -2.1 -1.9 -4.7z"/>
        <path d="M47 25.3 c0.1 -2.6 2.7 -10.6 3.2 -9.8 0.8 1.3 -1.3 10.5 -2.4 10.5 -0.4 0 -0.8 -0.3 -0.8 -0.7z"/>
        <path d="M22.2 10.8 c-1.9 -2 -2 -2.2 -0.4 -5.4 1.4 -3.1 1.9 -3.4 6.2 -3.4 4.3 0 4.8 0.3 6.2 3.4 1.6 3.2 1.5 3.4 -0.4 5.4 -1.7 1.7 -2.4 1.8 -3.9 0.9 -1.5 -0.9 -2.3 -0.9 -3.8 0 -1.5 0.9 -2.2 0.8 -3.9 -0.9z"/>
    </g>
    <g fill="#424242">
        <path d="M16.7 44.3 c-0.6 -0.6 2.1 -3.2 3.5 -3.3 0.3 0 0.4 0.9 0.1 2 -0.5 2 -2.3 2.6 -3.6 1.3z"/>
        <path d="M37 43.5 c0 -0.8 -0.5 -1.5 -1.2 -1.5 -0.6 0 -0.9 -0.3 -0.5 -0.6 0.3 -0.3 1.5 0 2.6 0.8 1.2 0.8 1.8 1.8 1.4 2.1 -1.1 1.2 -2.3 0.8 -2.3 -0.8z"/>
        <path d="M23.1 41.3 c-0.1 -2.1 0.3 -2.3 4.9 -2.3 4.6 0 5 0.2 4.9 2.3 -0.1 1.6 -0.2 1.8 -0.6 0.5 -0.3 -1.3 -1.5 -1.8 -4.3 -1.8 -2.8 0 -4 0.5 -4.3 1.8 -0.4 1.3 -0.5 1.1 -0.6 -0.5z"/>
        <path d="M7.6 39.4 c-2.1 -2 -2 -4 0 -4.8 2.1 -0.8 2 -0.8 2.9 3.2 0.7 3.5 -0.4 4.2 -2.9 1.6z"/>
        <path d="M45.5 37.8 c0.9 -4 0.8 -4 2.9 -3.2 2 0.8 2.1 2.8 0 4.8 -2.5 2.6 -3.6 1.9 -2.9 -1.6z"/>
        <path d="M16.5 37 c0.3 -0.5 1.5 -1 2.6 -1 1.1 0 1.7 0.5 1.4 1 -0.3 0.6 -1.5 1 -2.6 1 -1.1 0 -1.7 -0.4 -1.4 -1z"/>
        <path d="M35.5 37 c-0.3 -0.5 0.3 -1 1.4 -1 1.1 0 2.3 0.5 2.6 1 0.3 0.6 -0.3 1 -1.4 1 -1.1 0 -2.3 -0.4 -2.6 -1z"/>
        <path d="M24.3 35.4 c-0.3 -0.8 -0.1 -2 0.6 -2.7 1.4 -1.4 1.5 -9.4 0.1 -10.2 -1.3 -0.8 -1.3 -5.1 0 -7.6 2.3 -4.2 7 -1.2 7 4.5 0 1.4 -0.4 2.8 -1 3.1 -1.4 0.8 -1.3 8.8 0.1 10.2 0.7 0.7 0.9 1.9 0.6 2.7 -0.8 2.1 -6.6 2.1 -7.4 0z"/>
        <path d="M5.7 33.3 c-1.5 -1.4 -0.6 -4 1.8 -5.1 1.4 -0.6 2.5 -2 2.5 -3 0 -1.3 1.2 -2.2 4.1 -3.1 2.3 -0.7 4.8 -1.5 5.8 -1.8 1.4 -0.6 1.4 -0.4 -0.1 1.4 -1 1.1 -1.8 3.3 -1.8 5 0 2.7 -0.5 3.2 -5.6 5.2 -6.4 2.4 -5.9 2.3 -6.7 1.4z"/>
        <path d="M43.3 31.8 c-4.8 -1.9 -5.3 -2.4 -5.3 -5.1 0 -1.7 -0.8 -3.9 -1.7 -5 -1.6 -1.8 -1.6 -2 -0.2 -1.4 1 0.3 3.5 1.1 5.8 1.8 2.9 0.9 4.1 1.8 4.1 3.1 0 1 1.1 2.4 2.5 3 1.7 0.8 2.5 1.8 2.3 3.2 -0.4 2.7 -1.5 2.8 -7.5 0.4z"/>
        <path d="M32 28 c0 -4.3 0.3 -5 2 -5 1.7 0 2 0.7 2 5 0 4.3 -0.3 5 -2 5 -1.7 0 -2 -0.7 -2 -5z"/>
        <path d="M20 27.5 c0 -3.8 0.3 -4.5 2 -4.5 1.7 0 2 0.7 2 4.5 0 3.8 -0.3 4.5 -2 4.5 -1.7 0 -2 -0.7 -2 -4.5z"/>
        <path d="M2.8 26.3 c-0.2 -4.7 -0.3 -5.1 -1.1 -5.9 -1.3 -1.3 -0.8 -2.2 2.2 -3.7 l2.8 -1.4 1.2 4.9 c1.5 6.5 1.5 6.3 -1.4 7.6 -3.5 1.6 -3.5 1.6 -3.7 -1.5z"/>
        <path d="M49.5 27.8 c-1.1 -0.6 -2.2 -1.2 -2.3 -1.4 -0.2 -0.1 0.2 -2.7 0.8 -5.7 l1.3 -5.4 2.9 1.1 c2.2 0.8 2.8 1.5 2.4 3.1 -0.4 1.1 -0.9 3.7 -1.2 5.8 -0.7 4 -0.9 4.2 -3.9 2.5z"/>
        <path d="M9 20.6 c0 -0.7 2.5 -2.3 5.6 -3.5 6.7 -2.5 6.4 -2.5 6.4 -0.2 0 1.4 -1.3 2.4 -4.7 3.5 -5.7 2 -7.3 2 -7.3 0.2z"/>
        <path d="M39.3 20.3 c-3 -1 -4.3 -2 -4.3 -3.4 0 -2.3 -0.3 -2.3 6.4 0.2 3.1 1.2 5.6 2.8 5.6 3.5 0 1.8 -2.3 1.7 -7.7 -0.3z"/>
        <path d="M8 16.7 c0 -0.8 2.3 -2.4 5 -3.7 4.5 -2.1 5.2 -2.2 6.6 -0.8 1.4 1.3 0.9 1.7 -4.1 3.6 -6.6 2.6 -7.5 2.7 -7.5 0.9z"/>
        <path d="M40.2 15.8 c-4.8 -1.9 -5.2 -2.3 -3.8 -3.6 1.4 -1.4 2.1 -1.3 6.6 0.8 2.7 1.3 5 2.9 5 3.7 0 1.7 -1.5 1.6 -7.8 -0.9z"/>
        <path d="M22.7 11.2 c-1 -1 -1.7 -2.1 -1.7 -2.3 0 -0.3 3.2 -0.5 7 -0.5 3.9 0 7 0.3 7 0.7 0 1.6 -3 2.9 -5.4 2.3 -1.5 -0.3 -3.2 -0.1 -4 0.5 -1 0.8 -1.7 0.6 -2.9 -0.7z"/>
        <path d="M18 7.3 c0.1 -1.1 2.6 -4.3 3.3 -4.3 0.4 0 0.1 1.1 -0.5 2.5 -1 2.3 -2.8 3.5 -2.8 1.8z"/>
        <path d="M23.4 5.6 c0.2 -1.7 1 -2.1 4.6 -2.1 3.6 0 4.4 0.4 4.6 2.1 0.3 1.8 -0.2 2 -4.6 2 -4.4 0 -4.9 -0.2 -4.6 -2z"/>
        <path d="M35.2 5.5 c-1.3 -2.9 -0.5 -3.3 1.4 -0.7 1.5 2 1.8 3.2 0.6 3.2 -0.5 0 -1.4 -1.1 -2 -2.5z"/>
    </g>
    <g fill="#0395a4" class="custom-primary-color">
        <path d="M23 6.8 c0 -1.9 4.9 -3.2 7.5 -2 3.9 1.8 3 2.8 -2.5 2.8 -2.7 0 -5 -0.4 -5 -0.8z"/>
        <path d="M25.5 53.3 c-1 -2.1 -1.9 -5.5 -1.9 -7.5 l-0.2 -3.8 4.6 0 4.6 0 -0.2 3.8 c-0.1 3.5 -3.1 11.2 -4.4 11.2 -0.3 0 -1.5 -1.7 -2.5 -3.7z"/>
    </g>
    <g fill="#8b8b8b">
        <path d="M25.2 46.8 c0.3 -0.7 -0.1 -1.9 -0.9 -2.6 -0.7 -0.7 -1.3 -2.2 -1.3 -3.3 0 -1.6 0.7 -1.9 5 -1.9 4.3 0 5 0.3 5 1.9 0 1.1 -0.6 2.6 -1.3 3.3 -0.8 0.7 -1.2 1.9 -0.9 2.6 0.2 0.8 -0.7 1.2 -2.8 1.2 -2.1 0 -3 -0.4 -2.8 -1.2z"/>
        <path d="M3 27.5 c0 -0.8 1.2 -2.1 2.8 -2.9 1.5 -0.8 2.3 -1.5 1.9 -1.6 -0.5 0 -1.7 0.5 -2.7 1 -2.7 1.4 -3.9 -0.9 -1.4 -2.7 1.9 -1.4 1.9 -1.4 0 -1.1 -3.1 0.5 -3 -2 0.2 -3.6 l2.9 -1.5 1.1 5 c1.6 6.6 1.6 6.4 -1.3 7.7 -3.3 1.5 -3.5 1.5 -3.5 -0.3z"/>
        <path d="M49.5 27.8 c-1.1 -0.6 -2.2 -1.2 -2.3 -1.4 -0.2 -0.1 0.2 -2.7 0.8 -5.7 l1.3 -5.4 2.9 1.1 c1.7 0.6 2.7 1.7 2.5 2.6 -0.3 1.5 -0.8 1.6 -4.2 0.5 -1.1 -0.3 -0.7 0.1 0.8 1 1.6 0.9 2.6 2.2 2.4 2.8 -0.5 1.2 -0.9 1.3 -4.2 0.2 -1.1 -0.3 -0.8 0.1 0.8 1 1.5 0.8 2.7 2.2 2.7 3 0 1.8 -0.8 1.8 -3.5 0.3z"/>
        <path d="M18 7.4 c0 -0.3 0.5 -1.4 1 -2.5 1.6 -2.8 3.2 -2.3 1.8 0.6 -1 2.2 -2.8 3.5 -2.8 1.9z"/>
        <path d="M35.2 5.5 c-1.4 -2.9 0.2 -3.4 1.8 -0.6 1.2 2.4 1.3 3.1 0.2 3.1 -0.5 0 -1.4 -1.1 -2 -2.5z"/>
    </g>
    <g fill="#d5a3cd" class="custom-secondary-color">
        <path d="M26 50.1 c-0.6 -1.7 -0.9 -3.5 -0.5 -4 0.8 -1.4 4.2 -1.4 5 0 0.8 1.2 -1.3 6.9 -2.5 6.9 -0.4 0 -1.3 -1.3 -2 -2.9z"/>
    </g>
    <g fill="#d5d5d5">
        <path d="M3 27 c0 -0.5 1.4 -1.6 3 -2.5 2.4 -1.3 3 -1.3 3 -0.2 0 0.8 -1.1 1.9 -2.5 2.5 -3.1 1.5 -3.5 1.5 -3.5 0.2z"/>
        <path d="M49.3 26.8 c-1.3 -0.6 -2.3 -1.7 -2.3 -2.5 0 -1.1 0.5 -1.1 3 0.2 4.7 2.4 4 4.6 -0.7 2.3z"/>
        <path d="M2 23 c0 -0.5 1.4 -1.6 3 -2.5 2.4 -1.3 3 -1.3 3 -0.2 0 0.8 -1.1 1.9 -2.5 2.5 -3.1 1.5 -3.5 1.5 -3.5 0.2z"/>
        <path d="M50.3 22.8 c-1.3 -0.6 -2.3 -1.7 -2.3 -2.5 0 -1.1 0.5 -1.1 3 0.2 4.7 2.4 4 4.6 -0.7 2.3z"/>
        <path d="M1 19 c0 -0.5 1.4 -1.6 3 -2.5 2.4 -1.3 3 -1.3 3 -0.2 0 0.8 -1.1 1.9 -2.5 2.5 -3.1 1.5 -3.5 1.5 -3.5 0.2z"/>
        <path d="M51.3 18.8 c-1.3 -0.6 -2.3 -1.7 -2.3 -2.4 0 -1.7 4.6 0.2 5.4 2.2 0.6 1.6 -0.1 1.7 -3.1 0.2z"/>
    </g>
</svg>
