<?xml version="1.0" encoding="UTF-8" standalone="no"?>
<svg width="64" height="55" viewBox="0 0 640 550" version="1.1" xmlns="http://www.w3.org/2000/svg">
    <defs>
        <style type="text/css"><![CDATA[
      .custom-primary-color {
        fill:var(--custom-primary-color, #c2009e);
      }
      .custom-secondary-color {
        fill:var(--custom-secondary-color, #d5a3cd);
      }
    ]]></style>
    </defs>

    <g fill="rgb(0,0,0)">
        <path d="M204 423 c-7 -16 -14 -36 -18 -45 -4 -15 -17 -18 -65 -18 -33 0 -63 -5 -66 -10 -4 -6 -10 -8 -15 -5 -5 3 -16 -5 -25 -19 -17 -25 -13 -88 7 -113 13 -16 28 -7 28 16 0 15 9 13 68 -16 86 -44 132 -87 132 -126 0 -29 47 -87 70 -87 23 0 70 58 70 87 0 39 46 82 133 126 58 29 67 31 67 16 0 -23 15 -32 28 -16 20 25 24 88 7 113 -9 14 -20 22 -25 19 -5 -3 -11 -1 -15 5 -3 5 -33 10 -66 10 -48 0 -61 3 -65 18 -20 59 -30 72 -53 72 -16 0 -21 -4 -18 -14 3 -8 -1 -17 -9 -20 -8 -3 -14 -12 -14 -21 0 -18 -12 -19 -28 -3 -9 9 -15 9 -24 0 -16 -16 -28 -15 -28 3 0 9 -6 18 -14 21 -8 3 -12 12 -9 20 3 10 -2 14 -18 14 -17 0 -28 -8 -35 -27z"/>
    </g>
    <g fill="rgb(137,38,38)">
        <path d="M307 384 c-4 -4 -7 -22 -7 -41 0 -27 4 -33 21 -33 17 0 20 5 17 37 -3 35 -17 51 -31 37z"/>
        <path d="M210 364 c-9 -3 -21 -18 -27 -34 -10 -27 -16 -30 -57 -30 -35 0 -48 5 -60 22 -16 22 -16 21 -16 -19 0 -46 9 -53 71 -53 32 0 39 -3 39 -19 0 -11 5 -23 10 -26 6 -4 10 12 10 39 0 39 6 52 36 86 34 37 32 44 -6 34z"/>
        <path d="M225 328 l-38 -42 34 -28 34 -29 7 33 c6 27 3 36 -13 51 -12 9 -17 17 -11 17 5 0 15 -7 22 -15 17 -20 30 -9 30 26 0 41 -20 37 -65 -13z"/>
        <path d="M350 341 c0 -38 10 -44 37 -21 21 17 21 18 4 34 -26 24 -41 19 -41 -13z"/>
        <path d="M423 332 c31 -36 37 -49 37 -88 0 -27 4 -43 10 -39 6 3 10 15 10 26 0 16 7 19 39 19 62 0 71 7 71 53 0 40 0 41 -16 19 -12 -17 -25 -22 -60 -22 -43 0 -55 10 -69 57 0 1 -14 5 -30 9 l-30 7 38 -41z"/>
        <path d="M72 333 c5 -26 93 -31 102 -7 9 25 -1 29 -29 14 -20 -10 -28 -11 -37 -2 -18 18 -40 14 -36 -5z"/>
        <path d="M464 334 c3 -9 6 -18 6 -20 0 -2 20 -4 45 -4 32 0 47 5 52 15 9 24 -4 30 -32 15 -20 -10 -28 -11 -37 -2 -18 18 -41 15 -34 -4z"/>
        <path d="M27 333 c-11 -10 -8 -61 3 -68 6 -4 10 10 10 34 0 42 -2 46 -13 34z"/>
        <path d="M600 300 c0 -25 4 -39 10 -35 6 3 10 19 10 35 0 16 -4 32 -10 35 -6 4 -10 -10 -10 -35z"/>
        <path d="M393 313 c-18 -15 -21 -24 -15 -51 l7 -33 34 28 c33 28 33 28 14 52 -18 22 -19 22 -40 4z"/>
        <path d="M276 285 c-4 -10 1 -15 14 -15 11 0 20 7 20 15 0 8 -6 15 -14 15 -8 0 -16 -7 -20 -15z"/>
        <path d="M330 285 c0 -8 9 -15 20 -15 13 0 18 5 14 15 -4 8 -12 15 -20 15 -8 0 -14 -7 -14 -15z"/>
        <path d="M190 227 c0 -45 12 -56 58 -57 26 0 12 48 -23 74 l-35 27 0 -44z"/>
        <path d="M412 242 c-20 -17 -32 -36 -32 -51 0 -21 3 -23 32 -17 41 8 40 7 36 54 l-3 41 -33 -27z"/>
        <path d="M272 220 c0 -22 3 -42 7 -45 5 -2 8 10 8 28 -1 18 2 38 7 45 4 7 2 12 -7 12 -10 0 -15 -12 -15 -40z"/>
        <path d="M346 248 c5 -7 8 -27 7 -45 0 -18 3 -30 8 -28 15 10 8 85 -8 85 -9 0 -11 -5 -7 -12z"/>
        <path d="M232 149 c2 -6 8 -10 13 -10 5 0 11 4 13 10 2 6 -4 11 -13 11 -9 0 -15 -5 -13 -11z"/>
        <path d="M280 125 c0 -24 6 -37 20 -45 32 -17 60 4 60 45 0 39 -17 48 -22 13 -2 -13 -10 -23 -18 -23 -8 0 -16 10 -18 23 -5 35 -22 26 -22 -13z"/>
        <path d="M382 149 c2 -6 8 -10 13 -10 5 0 11 4 13 10 2 6 -4 11 -13 11 -9 0 -15 -5 -13 -11z"/>
        <path d="M261 102 c-2 -53 14 -72 59 -72 45 0 61 19 59 72 -1 24 -3 27 -6 10 -2 -12 -15 -30 -29 -38 -22 -15 -26 -15 -48 0 -14 8 -27 26 -29 38 -3 17 -5 14 -6 -10z"/>
    </g>
    <g fill="rgb(172,50,50)">
        <path d="M200 384 c0 -11 5 -14 16 -10 9 3 24 6 35 6 10 0 19 5 19 10 0 6 -16 10 -35 10 -25 0 -35 -4 -35 -16z"/>
        <path d="M370 390 c0 -5 9 -10 19 -10 11 0 26 -3 35 -6 11 -4 16 -1 16 10 0 12 -10 16 -35 16 -19 0 -35 -4 -35 -10z"/>
        <path d="M302 340 c2 -23 8 -35 18 -35 10 0 16 12 18 35 3 31 0 36 -18 36 -18 0 -21 -5 -18 -36z"/>
        <path d="M214 343 c-10 -16 -19 -36 -19 -46 -2 -17 38 -57 56 -57 18 0 8 30 -17 55 -31 31 -23 53 12 31 29 -20 44 -20 44 -2 0 14 -36 46 -51 46 -4 0 -15 -12 -25 -27z"/>
        <path d="M372 354 c-23 -16 -30 -44 -12 -44 6 0 21 7 34 16 35 22 43 0 12 -31 -25 -25 -35 -55 -17 -55 18 0 58 40 56 58 -1 17 -37 72 -47 72 -2 0 -14 -7 -26 -16z"/>
        <path d="M160 334 c0 -14 -8 -16 -45 -12 -24 3 -42 2 -39 -3 5 -9 94 -13 94 -5 0 2 3 11 6 20 3 9 1 16 -5 16 -6 0 -11 -7 -11 -16z"/>
        <path d="M464 334 c3 -9 6 -18 6 -20 0 -8 89 -4 94 5 3 5 -15 6 -39 3 -37 -4 -45 -2 -45 12 0 9 -5 16 -11 16 -6 0 -8 -7 -5 -16z"/>
        <path d="M20 296 c0 -19 5 -38 10 -41 6 -4 10 10 10 34 0 23 -4 41 -10 41 -5 0 -10 -15 -10 -34z"/>
        <path d="M600 289 c0 -24 4 -38 10 -34 6 3 10 22 10 41 0 19 -4 34 -10 34 -5 0 -10 -18 -10 -41z"/>
        <path d="M52 276 c3 -20 86 -75 115 -76 6 0 13 20 15 49 3 47 2 48 -20 38 -15 -7 -36 -7 -68 0 -43 10 -45 9 -42 -11z"/>
        <path d="M276 284 c-5 -12 -2 -15 10 -10 8 3 20 6 25 6 6 0 7 5 4 10 -10 15 -32 12 -39 -6z"/>
        <path d="M344 285 c8 -8 17 -15 20 -15 3 0 3 7 0 15 -4 8 -13 15 -21 15 -12 0 -12 -2 1 -15z"/>
        <path d="M458 249 c2 -29 9 -49 15 -49 29 1 112 56 115 76 3 20 1 21 -42 11 -32 -7 -53 -7 -68 0 -22 10 -23 9 -20 -38z"/>
        <path d="M272 220 c0 -22 3 -42 7 -44 4 -3 8 15 8 39 0 25 -3 45 -7 45 -4 0 -8 -18 -8 -40z"/>
        <path d="M353 215 c0 -24 4 -42 8 -39 10 6 9 84 -1 84 -4 0 -7 -20 -7 -45z"/>
        <path d="M190 213 c0 -30 49 -90 63 -76 15 14 7 64 -10 70 -10 3 -26 13 -35 21 -17 14 -18 13 -18 -15z"/>
        <path d="M437 232 c-5 -7 -20 -17 -33 -22 -18 -7 -24 -17 -24 -39 0 -42 13 -45 44 -12 20 21 27 37 24 57 -2 20 -6 25 -11 16z"/>
        <path d="M281 128 c-1 -28 4 -40 19 -48 34 -18 60 4 59 48 -1 22 -3 28 -6 15 -2 -12 -11 -27 -19 -33 -18 -15 -41 1 -47 33 -3 13 -5 7 -6 -15z"/>
        <path d="M260 76 c0 -19 43 -66 60 -66 17 0 60 47 60 66 0 15 -2 16 -17 2 -22 -18 -64 -18 -86 1 -15 12 -17 11 -17 -3z"/>
    </g>

    <g fill="rgb(105,106,106)">
        <path d="M220 430 c0 -5 6 -10 14 -10 8 0 18 5 21 10 3 6 -3 10 -14 10 -12 0 -21 -4 -21 -10z"/>
        <path d="M385 430 c3 -5 13 -10 21 -10 8 0 14 5 14 10 0 6 -9 10 -21 10 -11 0 -17 -4 -14 -10z"/>
        <path d="M220 395 c0 -9 9 -15 25 -15 16 0 25 6 25 15 0 9 -9 15 -25 15 -16 0 -25 -6 -25 -15z"/>
        <path d="M370 395 c0 -9 9 -15 25 -15 16 0 25 6 25 15 0 9 -9 15 -25 15 -16 0 -25 -6 -25 -15z"/>
        <path d="M72 333 c4 -23 86 -32 99 -11 16 24 9 28 -47 28 -47 0 -55 -3 -52 -17z"/>
        <path d="M460 343 c1 -24 20 -34 61 -31 32 2 45 8 47 21 3 14 -5 17 -52 17 -31 0 -56 -3 -56 -7z"/>
        <path d="M20 319 c-13 -23 -6 -69 10 -69 6 0 10 20 10 45 0 50 -4 55 -20 24z"/>
        <path d="M600 298 c0 -47 12 -63 24 -32 9 24 7 39 -9 60 -13 18 -14 15 -15 -28z"/>
        <path d="M303 318 c2 -7 10 -13 17 -13 7 0 15 6 18 13 2 7 -5 12 -18 12 -13 0 -20 -5 -17 -12z"/>
        <path d="M355 320 c-3 -5 1 -10 9 -10 8 0 18 5 21 10 3 6 -1 10 -9 10 -8 0 -18 -4 -21 -10z"/>
        <path d="M276 284 c-4 -11 6 -14 44 -14 38 0 48 3 44 14 -3 8 -20 13 -44 13 -24 0 -41 -5 -44 -13z"/>
        <path d="M270 248 c0 -9 17 -13 50 -13 33 0 50 4 50 13 0 8 -17 12 -50 12 -33 0 -50 -4 -50 -12z"/>
        <path d="M274 216 c-13 -33 4 -47 48 -44 38 3 43 6 43 28 0 22 -5 25 -43 28 -31 2 -44 -1 -48 -12z m79 -23 c3 -5 -12 -8 -33 -8 -21 0 -36 3 -33 8 2 4 17 7 33 7 16 0 31 -3 33 -7z"/>
        <path d="M298 153 c12 -2 32 -2 45 0 12 2 2 4 -23 4 -25 0 -35 -2 -22 -4z"/>
    </g>
    <g fill="rgb(132,126,135)">
        <path d="M210 430 c0 -5 9 -10 19 -10 11 0 23 5 26 10 4 6 -5 10 -19 10 -14 0 -26 -4 -26 -10z"/>
        <path d="M385 430 c3 -5 15 -10 26 -10 10 0 19 5 19 10 0 6 -12 10 -26 10 -14 0 -23 -4 -19 -10z"/>
        <path d="M200 389 c0 -15 4 -19 16 -15 9 3 20 6 25 6 5 0 9 7 9 15 0 9 -9 15 -25 15 -19 0 -25 -5 -25 -21z"/>
        <path d="M390 395 c0 -8 4 -15 9 -15 5 0 16 -3 25 -6 12 -4 16 0 16 15 0 16 -6 21 -25 21 -16 0 -25 -6 -25 -15z"/>
        <path d="M304 377 c-10 -27 0 -72 16 -72 11 0 15 11 15 39 0 40 -20 61 -31 33z"/>
        <path d="M72 330 c4 -21 93 -27 101 -6 4 11 -6 15 -49 18 -44 2 -54 0 -52 -12z"/>
        <path d="M513 342 c-41 -2 -51 -6 -46 -18 8 -20 92 -19 100 1 7 20 7 21 -54 17z"/>
        <path d="M17 317 c-8 -22 2 -95 14 -103 10 -6 10 46 0 91 -5 25 -8 27 -14 12z"/>
        <path d="M607 294 c-9 -55 -9 -86 2 -80 13 8 23 85 13 103 -7 11 -11 6 -15 -23z"/>
        <path d="M275 280 c-4 -6 13 -10 45 -10 32 0 49 4 45 10 -3 6 -24 10 -45 10 -21 0 -42 -4 -45 -10z"/>
        <path d="M270 245 c0 -5 23 -10 50 -10 28 0 50 5 50 10 0 6 -22 10 -50 10 -27 0 -50 -4 -50 -10z"/>
        <path d="M272 198 c3 -20 9 -23 48 -23 39 0 45 3 48 23 3 20 0 22 -48 22 -48 0 -51 -2 -48 -22z m82 -6 c3 -5 -12 -9 -34 -9 -22 0 -37 4 -34 9 3 4 18 8 34 8 16 0 31 -4 34 -8z"/>
        <path d="M280 150 c0 -5 18 -10 40 -10 22 0 40 5 40 10 0 6 -18 10 -40 10 -22 0 -40 -4 -40 -10z"/>
    </g>

    <g fill="rgb(217,87,99)">
        <path d="M224 349 c-4 -7 45 -43 51 -37 3 2 2 13 -1 25 -6 20 -39 28 -50 12z"/>
        <path d="M363 334 c-8 -18 -8 -24 0 -24 15 1 41 22 44 35 4 22 -33 12 -44 -11z"/>
        <path d="M197 278 c21 -24 53 -42 60 -34 9 9 -37 51 -58 52 -19 1 -19 1 -2 -18z"/>
        <path d="M400 273 c-12 -14 -19 -27 -17 -30 7 -7 39 12 59 34 16 18 16 19 -1 20 -10 1 -28 -10 -41 -24z"/>
        <path d="M52 273 c3 -17 90 -72 116 -73 6 0 12 9 12 21 0 12 -5 19 -12 16 -7 -3 -37 8 -66 25 -46 25 -53 27 -50 11z"/>
        <path d="M536 260 c-27 -16 -55 -26 -62 -23 -9 3 -14 -2 -14 -16 0 -12 5 -21 10 -21 21 0 111 51 117 66 9 24 1 23 -51 -6z"/>
        <path d="M190 199 c0 -20 56 -74 64 -61 3 5 -10 24 -29 42 -23 22 -35 29 -35 19z"/>
        <path d="M411 177 c-18 -19 -29 -37 -23 -41 12 -7 65 49 60 64 -2 6 -18 -5 -37 -23z"/>
        <path d="M281 128 c-1 -28 4 -40 19 -48 34 -18 60 4 59 48 -2 29 -3 31 -6 10 -9 -58 -57 -58 -66 0 -3 21 -4 19 -6 -10z"/>
        <path d="M260 71 c0 -15 45 -61 60 -61 6 0 22 11 35 25 32 31 33 56 3 29 -29 -24 -50 -24 -77 0 -13 11 -21 14 -21 7z"/>
    </g>

    <g fill="rgb(99,155,255)" class="custom-primary-color">
        <path d="M234 533 c-3 -10 -12 -30 -19 -44 -19 -35 -9 -71 19 -67 17 2 21 9 19 33 -2 17 -4 45 -5 63 -3 36 -6 40 -14 15z"/>
        <path d="M392 517 c-1 -18 -3 -45 -5 -62 -2 -24 2 -31 19 -33 28 -4 39 34 19 65 -8 12 -15 29 -15 37 0 30 -15 23 -18 -7z"/>
        <path d="M280 125 c0 -41 28 -62 60 -45 14 8 20 21 20 45 0 34 -1 35 -40 35 -39 0 -40 -1 -40 -35z"/>
    </g>
    <g fill="rgb(155,173,183)" class="custom-secondary-color">
        <path d="M227 473 c-10 -9 -9 -53 2 -53 12 0 20 35 12 49 -4 6 -10 8 -14 4z"/>
        <path d="M397 468 c-5 -18 3 -48 14 -48 12 0 12 47 0 54 -5 4 -11 0 -14 -6z"/>
    </g>
</svg>
