<?xml version="1.0" encoding="UTF-8" standalone="no"?>
<svg width="7.9375372mm" height="6.8791599mm" viewBox="0 0 7.9375372 6.8791599" version="1.1" xmlns="http://www.w3.org/2000/svg">
    <defs>
        <style type="text/css"><![CDATA[
      .custom-primary-color {
        fill:var(--custom-primary-color, #c2009e);
      }
      .custom-secondary-color {
        fill:var(--custom-secondary-color, #d5a3cd);
      }
    ]]></style>
    </defs>
    <g transform="translate(-58.737456,-127.2646)">
        <path fill="#ffffff"
              d="M 4.0149742,0.19606032 3.5887562,0.30687703 2.6084547,2.4209187 0.20458468,4.8844591 0.17048723,6.0522968 0.84391181,5.9670531 2.8641855,4.9611785 3.418269,6.5467097 4.5946308,6.5637594 4.6798745,5.1657641 5.4044452,5.2424835 7.6378281,6.1204927 7.8338883,5.4982144 7.6037307,4.6883989 5.6942735,2.7704177 5.1742876,2.190761 4.8844591,1.1678375 4.3559489,0.27277957 Z"
              transform="translate(58.737456,127.2646)"/>
        <g fill="#4d65b4" class="custom-primary-color">
            <path d="m 65.120572,131.66328 q 0.03307,-0.0992 0.09922,-0.0992 0.06615,0 0.09922,0.0992 0.03307,0.0992 0,0.19844 -0.03307,0.0992 -0.09922,0.0992 -0.06615,0 -0.09922,-0.0992 -0.03307,-0.0992 0,-0.19844"/>
            <path d="m 60.093489,131.66328 q 0.03307,-0.0992 0.09922,-0.0992 0.06614,0 0.09922,0.0992 0.03307,0.0992 0,0.19844 -0.03307,0.0992 -0.09922,0.0992 -0.06615,0 -0.09922,-0.0992 -0.03307,-0.0992 0,-0.19844"/>
            <path d="m 64.591405,131.13411 q 0.03307,-0.0992 0.09922,-0.0992 0.06615,0 0.09922,0.0992 0.03307,0.0992 0.03307,0.23151 0,0.13229 -0.03307,0.23151 -0.03307,0.0992 -0.09922,0.0992 -0.06615,0 -0.09922,-0.0992 -0.03307,-0.0992 -0.03307,-0.23151 0,-0.13229 0.03307,-0.23151"/>
            <path d="m 60.622655,131.13411 c 0.02205,-0.0661 0.05512,-0.0992 0.09922,-0.0992 0.0441,0 0.07717,0.0331 0.09922,0.0992 0.02205,0.0661 0.03307,0.1433 0.03307,0.23151 0,0.0882 -0.01102,0.16536 -0.03307,0.23151 -0.02205,0.0661 -0.05512,0.0992 -0.09922,0.0992 -0.0441,0 -0.07717,-0.0331 -0.09922,-0.0992 -0.02205,-0.0661 -0.03307,-0.1433 -0.03307,-0.23151 0,-0.0882 0.01102,-0.16536 0.03307,-0.23151"/>
            <path d="m 62.436498,128.18959 c 0.157824,-0.17632 0.446687,-0.13097 0.581989,0.0493 0.10204,0.13569 0.198654,0.28992 0.248996,0.45834 0.04724,0.12918 0.264179,0.3301 0.204654,0.43432 -0.174813,-0.0181 -0.663749,-0.51247 -0.787467,-0.52366 -0.112905,0.0134 -0.475001,0.46589 -0.755467,0.51029 -0.02284,-0.0975 0.126568,-0.34568 0.196639,-0.4579 0.105093,-0.1865 0.16932,-0.33348 0.310648,-0.47072 z"/>
        </g>
        <g fill="#c7dcd0">
            <path d="m 59.035155,132.19244 c 0.0045,-0.0877 0.103953,-0.10448 0.157758,-0.15136 0.05432,-0.0477 0.07826,-0.1531 0.07275,-0.0862 -0.01584,0.0954 -0.0067,0.3419 -0.05286,0.42257 -0.0497,0.089 -0.120905,0.17239 -0.21511,0.21516 -0.08486,0.0279 -0.09782,-0.0886 -0.06342,-0.14118 0.03114,-0.0877 0.08352,-0.1676 0.101013,-0.26011 m -0.03307,0.26459 v 0.1654 -0.2645 0.0992"/>
            <path d="m 64.062239,130.07578 c 0.04485,-0.13444 0.153593,-0.13444 0.19844,0 0.04891,0.11663 -0.0328,0.66109 0.0661,1.78606 0.02205,0.0661 0.05512,0.12125 0.09922,0.16536 0.556716,0.42843 1.298147,0.72009 1.924709,1.04859 0.150926,0.0761 0.0522,0.0152 -0.07274,0.20799 -0.0441,0 -0.0882,-0.022 -0.132291,-0.0661 -0.304448,-0.15769 -1.825355,-0.67544 -2.017448,-1.06845 -0.184429,-0.42687 -0.199272,-1.53577 -0.06615,-2.07326"/>
            <path d="m 61.151822,130.07578 c 0.501541,0.0866 0.30305,0.8262 0.219126,1.18562 0.1457,0.53618 0.04695,1.06273 -0.569429,1.25444 -0.527036,0.2603 -1.218625,0.55317 -1.76257,0.77791 -0.4545,-0.64496 1.982859,-0.62436 2.078343,-1.62486 0.03443,-0.52841 -0.06287,-1.07016 0.03435,-1.59321"/>
            <path d="m 63.787326,129.39723 c -0.01061,0.59169 -0.208105,2.0359 -0.230445,2.62767 0.06517,0.18008 -0.312116,0.92776 -0.29945,0.46486 0.0014,-0.64631 -0.01383,-1.52214 -0.02159,-2.15698 0.002,-0.25862 0.0082,-0.62444 0.194593,-0.75216"/>
            <path d="m 62.011996,129.61014 c 0.234754,0.22042 0.149011,0.56323 0.164808,0.8481 0.01034,0.61012 9.64e-4,1.51985 0.0055,2.13258 -0.259806,-0.16467 -0.249057,-0.57864 -0.269661,-0.78741 -0.008,-0.5575 -0.02907,-1.11229 -0.05921,-1.66886 -0.05321,-0.19801 -0.30706,-0.5051 -0.292767,-0.72738"/>
            <path d="m 66.180973,132.14386 c 0.0028,-0.0468 0.0065,-0.0989 0.0093,-0.14573 0.05764,0.0623 0.11577,0.15287 0.158128,0.23263 0.03436,0.0844 0.07587,0.19284 0.0899,0.29459 -0.05185,-0.01 -0.14271,-0.0458 -0.1944,-0.0719 -0.05333,-0.0668 -0.06058,-0.1561 -0.06445,-0.23828 -4.67e-4,-0.0238 1.32e-4,-0.0475 0.0015,-0.0713 z"/>
        </g>
        <path
                fill="#000000"
                d="m 62.408593,127.3638 c 0.384495,-0.30388 0.862815,0.10915 1.011932,0.47474 0.249783,0.49372 0.569929,0.97181 0.640025,1.53201 0.20628,0.54736 0.788799,0.79565 1.144206,1.2294 0.455822,0.52665 0.92549,0.9452 1.378455,1.47548 0.06898,0.1404 0.176262,1.03093 0.02709,1.51549 -0.479726,0.1671 -0.784322,-0.42319 -1.250031,-0.4251 -0.412475,0.0469 -0.877708,0.35496 -1.235537,-0.0125 -0.142288,-0.13514 -0.441963,-0.77733 -0.621908,-0.35658 -0.0154,0.40389 -0.01758,0.70346 -0.01537,1.10834 -0.12087,0.55945 -0.583878,-0.0423 -0.905209,0.0806 -0.268483,0.14416 -0.719333,0.25486 -0.687444,-0.21002 0.0013,-0.40206 -0.279459,-0.70063 -0.30254,-1.10096 -0.275022,-0.0851 -0.110142,0.48612 -0.421339,0.5468 -0.453227,0.37941 -0.910357,-0.22898 -1.39055,-0.0266 -0.294986,0.19096 -0.799409,0.68931 -1.056239,0.16731 0.01251,-0.39233 0.02715,-0.79287 0.01079,-1.19008 0.09679,-0.33529 0.499493,-0.4732 0.683411,-0.76447 0.524559,-0.53209 1.060492,-1.05434 1.592891,-1.57749 0.391145,-0.21259 0.335862,-0.65152 0.478394,-1.00457 0.168038,-0.38948 0.360756,-0.77511 0.601131,-1.12375 0.09877,-0.11924 0.208286,-0.22893 0.317805,-0.33817 m -3.373438,5.82083 c 0.510709,0.0866 0.855449,-0.39734 1.315339,-0.51218 0.350095,-0.21683 0.881692,-0.2669 1.027784,-0.71271 0.03449,-0.36317 -0.01637,-0.73356 0.0041,-1.09994 -0.03762,-0.23641 0.140902,-0.81693 -0.268999,-0.71353 -0.442805,0.19631 -0.660786,0.66461 -1.040156,0.94902 -0.398288,0.38346 -0.841571,0.76401 -1.066913,1.2791 -0.0603,0.2682 -0.0045,0.54283 0.02885,0.81046 m 3.935678,0.56198 c 0.546033,-0.1706 0.118619,-0.8154 0.276008,-1.192 0.1636,-0.38475 0.321209,-0.78651 0.264322,-1.21361 -0.03035,-0.56575 -0.0684,-1.16796 0.220878,-1.68034 0.187341,-0.59202 -0.280146,-1.08228 -0.49497,-1.59098 -0.04011,-0.39243 -0.490087,-0.61774 -0.819634,-0.38643 -0.289589,0.13648 -0.2498,0.481 -0.398793,0.71509 -0.192041,0.3718 -0.507521,0.79159 -0.341084,1.22783 0.205836,0.45691 0.288818,0.9627 0.232514,1.4609 -0.02522,0.5116 0.03037,1.03893 0.270387,1.49808 0.119846,0.36293 -0.184963,0.84327 0.13126,1.12724 0.216025,0.0656 0.34821,0.0651 0.659112,0.0342 z m 3.174998,-0.52937 c 0.472742,-0.18596 0.320743,-0.8388 0.08859,-1.16389 -0.395193,-0.50222 -0.87209,-0.93374 -1.320214,-1.38736 -0.231378,-0.1747 -0.689164,-0.89137 -0.889094,-0.35239 -0.03765,0.45341 0.04994,0.90754 -0.0083,1.3613 0.09356,0.89149 1.313886,1.14693 2.03647,1.48907 l 0.04651,0.0261 0.04607,0.027"/>
        <g fill="#4d9be6" class="custom-secondary-color">
            <path d="m 64.062239,133.25078 c 0.01516,-0.0755 0.106794,-0.10611 0.172424,-0.0762 0.06826,0.0129 0.09936,0.0805 0.157355,0.10819 0.137047,0.065 0.294618,0.035 0.434044,-0.006 0.104505,-0.0269 0.199653,-0.0815 0.304806,-0.10571 0.06501,-0.0165 0.145239,-0.001 0.179054,0.0628 0.05489,0.0896 0.03073,0.2044 -0.02288,0.28859 -0.09789,0.16915 -0.262854,0.30113 -0.455172,0.34398 -0.162807,0.0406 -0.340787,0.0126 -0.48162,-0.0792 -0.159796,-0.0966 -0.294177,-0.26139 -0.302351,-0.45429 -0.001,-0.0281 0.0027,-0.0568 0.01434,-0.0824 z"/>
            <path
                    d="m 60.093489,133.25078 c 0.03786,-0.16764 0.181032,-0.0742 0.302277,-0.0275 0.195252,0.10012 0.42428,0.14874 0.620763,0.0699 0.09002,-0.0719 0.259886,-0.23024 0.332798,-0.053 0.07255,0.20969 -0.09325,0.40074 -0.249006,0.51913 -0.182854,0.15296 -0.459753,0.15122 -0.67048,0.0604 -0.145324,-0.0893 -0.283039,-0.2206 -0.341364,-0.38404 -0.01621,-0.0603 -0.01588,-0.1259 0.005,-0.18483 z"/>
            <path
                    d="m 62.441666,128.71979 c 0.0441,-0.0441 0.09922,-0.0771 0.165364,-0.0992 0.06615,-0.0221 0.132293,-0.0221 0.198438,0 0.06615,0.0221 0.121268,0.0551 0.165365,0.0992 0.04409,0.0441 0.08819,0.0882 0.132291,0.13229 l 0.132292,0.13229 c 0.0441,0.0441 0.09647,0.0771 0.157096,0.0992 l 0.09095,0.0331 c 0.0031,0.0334 -0.0028,0.0672 -0.01654,0.0992 -0.182037,0.17492 -0.439364,0.26356 -0.661458,0.39679 -0.06615,0.0221 -0.132293,0.0221 -0.198438,0 -0.195246,-0.11158 -0.424526,-0.23773 -0.644908,-0.34719 -0.02436,-0.0464 -0.02219,-0.0998 -0.03308,-0.1488 v 0 l 0.09095,-0.0331 c 0.06063,-0.0221 0.112999,-0.0551 0.157097,-0.0992 0.04409,-0.0441 0.08819,-0.0882 0.132291,-0.13229 l 0.132292,-0.13229"/>
        </g>
    </g>
</svg>
